# xmcd
#
# Track frame offsets:
#	150
#	11423
#	26690
#	42122
#	54928
#	69076
#	83479
#	95082
#	105430
#	133279
#	149692
#	162883
#
# Disc length: 2301 seconds
#
# Revision: 1
# Processed by: cddbd v1.5.1PL0 Copyright (c) Steve Scherf et al.
# Submitted via: EasyCDDAExtractor 8.2.2.1
#
DISCID=9408fb0c
DTITLE=Various Artist - Noches de Nostalgia
DYEAR=2003
DGENRE=Latin
TTITLE0=Domingo Lugo - En un beso la vida
TTITLE1=Miguelito Cuni - Tu falso sentir
TTITLE2=Roberto Sánchez - Mi súplica
TTITLE3=Mario Rodríguez - Mis noches de hastío
TTITLE4=Benny Moré - Corazón rebelde
TTITLE5=Vicentico Valdés - Plazos traicioneros
TTITLE6=José Tejedor - Y en las tinieblas
TTITLE7=Rulo Martínez - Ya son las doce
TTITLE8=Roberto Faz - Mosaico No. 7
TTITLE9=Manolo del Valle - Que hiciste de mi
TTITLE10=Fernando Alvarez - Dos gardenias
TTITLE11=Lino Borges - Corazón de cristal
EXTD=
EXTT0=
EXTT1=
EXTT2=
EXTT3=
EXTT4=
EXTT5=
EXTT6=
EXTT7=
EXTT8=
EXTT9=
EXTT10=
EXTT11=
PLAYORDER=
